<svg id="Capa_1" data-name="Capa 1" xmlns="http://www.w3.org/2000/svg" viewBox="0 0 860 250"><defs><style>.cls-1{fill:#e23f14;}</style></defs><title>Mesa de trabajo 1</title><path class="cls-1" d="M269.25,212.7v28.91h-9.7V212.7H248.81l1.87-5.63h27.44L280,212.7Z"/><path class="cls-1" d="M318,241.61l-2-6.37H305.31l-2,6.37h-6.66l10.58-34.54h10.19l10.69,34.54Zm-10.92-12h7.2l-3.63-11.71Z"/><path class="cls-1" d="M367.93,240.82a22.39,22.39,0,0,0,.74,2.38,11.73,11.73,0,0,0,1.1,2.25,8.65,8.65,0,0,0,1.62,1.91,6.1,6.1,0,0,0,2.28,1.3,5.83,5.83,0,0,1-3.48.91,10.34,10.34,0,0,1-4-1,15.61,15.61,0,0,1-3.87-2.63,15.28,15.28,0,0,1-3.14-4,13.31,13.31,0,0,1-5.95-2.28,14.83,14.83,0,0,1-4.14-4.46,18.83,18.83,0,0,1-2.31-6,25.9,25.9,0,0,1-.44-6.91,23.87,23.87,0,0,1,1.06-5.12,16.89,16.89,0,0,1,2.62-5.14,14.43,14.43,0,0,1,4.58-4,13.81,13.81,0,0,1,6.88-1.59h.2a13.78,13.78,0,0,1,6.88,1.59,14.57,14.57,0,0,1,4.59,4,17.12,17.12,0,0,1,2.62,5.14,22.37,22.37,0,0,1,1,5.12,27.16,27.16,0,0,1-.24,5.86,20.28,20.28,0,0,1-1.57,5.32,16.88,16.88,0,0,1-2.89,4.36A12.64,12.64,0,0,1,367.93,240.82Zm-13.32-18.37a25.81,25.81,0,0,0,.14,4.7,16.39,16.39,0,0,0,1.15,4.46,9.94,9.94,0,0,0,2.26,3.33,4.72,4.72,0,0,0,3.4,1.33h.2a4.76,4.76,0,0,0,3.41-1.33,9.44,9.44,0,0,0,2.22-3.33,17.55,17.55,0,0,0,1.16-4.46,21.94,21.94,0,0,0,.12-4.7c0-.26-.09-.68-.17-1.27a16.53,16.53,0,0,0-.42-2,20.56,20.56,0,0,0-.78-2.33,10.1,10.1,0,0,0-1.25-2.2,6.5,6.5,0,0,0-1.82-1.65,4.7,4.7,0,0,0-2.47-.63h-.2a4.73,4.73,0,0,0-2.47.63,6.47,6.47,0,0,0-1.81,1.65,10.21,10.21,0,0,0-1.28,2.2,17.52,17.52,0,0,0-.81,2.33,18.44,18.44,0,0,0-.41,2C354.69,221.77,354.64,222.19,354.61,222.45Z"/><path class="cls-1" d="M428.45,207.07v20.82a15.7,15.7,0,0,1-1.06,6.25,11.88,11.88,0,0,1-3.11,4.45,13.14,13.14,0,0,1-4.82,2.7,20.51,20.51,0,0,1-6.25.91,19,19,0,0,1-6.1-.93,13.7,13.7,0,0,1-4.8-2.75,12.27,12.27,0,0,1-3.16-4.48,15.55,15.55,0,0,1-1.13-6.15V207.07h9.7v22.78a7.12,7.12,0,0,0,.34,2.2,6.13,6.13,0,0,0,1,2,5.35,5.35,0,0,0,6.42,1.45,5.54,5.54,0,0,0,1.77-1.37,5.92,5.92,0,0,0,1.1-1.94,7.08,7.08,0,0,0,.37-2.25V207.07Z"/><path class="cls-1" d="M460.59,236.32h13.48l-1.72,5.29H451.48V207.07h20.87l1.72,5.29H460.59v10.48h10.1v5.29h-10.1Z"/><path class="cls-1" d="M515.57,241.61l-8.92-13.33v13.33H497V207.07h16.36a19.42,19.42,0,0,1,6,.83,11,11,0,0,1,4.27,2.42,9,9,0,0,1,2.37,3.88,12.84,12.84,0,0,1,.42,5.16,7.56,7.56,0,0,1-2.48,4.76,12.5,12.5,0,0,1-6.49,2.84l9.9,14.65Zm-8.92-28.91v9h5.05a11.32,11.32,0,0,0,1.57-.13,5.2,5.2,0,0,0,1.78-.56,4.41,4.41,0,0,0,1.5-1.27,3.58,3.58,0,0,0,.64-2.21,4.88,4.88,0,0,0-.54-2.67,4,4,0,0,0-1.52-1.44,5.32,5.32,0,0,0-2-.59c-.72-.07-1.41-.1-2.06-.1Z"/><path class="cls-1" d="M548.15,241.61V207.07h9.7v34.54Z"/><path class="cls-1" d="M600.58,241.61l-2-6.37H587.89l-2,6.37h-6.66l10.58-34.54H600l10.68,34.54Zm-10.93-12h7.21l-3.63-11.71Z"/><path class="cls-1" d="M748.49,24.52a192.81,192.81,0,0,1,65.74,12.56c11.42,4.39,21.75,10.53,30.4,19.22a50.42,50.42,0,0,1,15.31,36.21A78.18,78.18,0,0,1,851.17,130c-8,15.41-20.81,24.46-37.74,28.11-6.64,1.43-13.43,1.82-20.16,2.69a14,14,0,0,1-2.42,0c-17.27-1.07-34.42-3.06-51.19-7.51a194.28,194.28,0,0,1-22.93-7.61,76.23,76.23,0,0,1-21.34-13.05c-10.39-8.94-16-20.3-17.06-33.85a88.46,88.46,0,0,1,3.88-34.57c6.18-19.31,19.32-31.29,38.92-36.53A95.17,95.17,0,0,1,748.49,24.52Zm51.18,59.73c0-2.56.22-5.13,0-7.67-.93-9.4-5.72-16.17-14.62-19.77a43.71,43.71,0,0,0-19.39-3.38,22.48,22.48,0,0,0-14.37,6.1,32.2,32.2,0,0,0-7.52,11.07,76.39,76.39,0,0,0-6,37.49c.82,9.17,5.54,15.82,14.37,19.38a50.21,50.21,0,0,0,16,3.61c12.44.7,20-4.86,24.5-14.34.34-.73.67-1.46,1-2.19A72.37,72.37,0,0,0,799.67,84.25Z"/><path class="cls-1" d="M189.91,137.69c-.15-1,.62-1.45,1.1-2a15.52,15.52,0,0,0,3.66-12c-.5-4.93-.92-9.87-1.55-14.79-1.48-11.57-3.05-23.13-4.62-34.69-1.84-13.63-3.76-27.24-5.53-40.87-.88-6.7-3.61-12.21-9.47-16-.23-.15-.32-.49-.69-1.07,22-2.77,43.89-5.19,65.61-7.8.84,1,.2,1.68-.12,2.31a17.25,17.25,0,0,0-1.7,8.86c.6,10.86,1.82,21.66,3.15,32.46.3,2.44.45,2.56,3.15,2.37,5-.35,10-.81,15-1.24q15.21-1.31,30.41-2.64c2.73-.25,5.46-.57,8.19-.82,1.15-.1,1.79-.6,1.72-1.8-.1-2.07-.16-4.15-.32-6.23q-.8-10.51-1.67-21c-.16-1.91-.46-3.81-.61-5.72a16.24,16.24,0,0,0-3.42-9.31c-1-1.29-.65-1.83,1.16-1.94,4.67-.27,9.35-.54,14-.78,8.55-.45,17.1-.86,25.66-1.31,7.58-.4,15.16-.83,22.74-1.23.75,0,1.51,0,2.18,0,.3,1.37-.63,1.67-1.15,2.15-4.45,4.1-6.19,9.24-6,15.13q.44,11.27,1,22.52c.46,10.23,1,20.45,1.42,30.67.47,10.7.87,21.41,1.33,32.11.11,2.4.37,4.79.49,7.18a14.72,14.72,0,0,0,5.21,10.46c.79.73,2,1.12,2.37,2.66-10.26,1.1-20.51,1.35-30.72,1.9s-20.27,1.47-30.21,1.44a1.54,1.54,0,0,1-.27-2,21.17,21.17,0,0,0,1.51-10.34q-1.17-17.46-2.43-34.93c-.06-.79-.15-1.59-.22-2.39a1.63,1.63,0,0,0-1.89-1.67c-3.55.2-7.1.36-10.65.65-5.95.48-11.9,1.06-17.85,1.57-8,.7-16.1,1.37-24.14,2.06a6.27,6.27,0,0,0-1.42.28,1.77,1.77,0,0,0-1.43,1.69,13.68,13.68,0,0,0,0,1.92q2.13,18.57,4.29,37.15c.43,3.69,1.4,7.2,4.66,10.36-20.62,2.52-40.44,4.88-60.28,7.07C191.05,138.11,190.38,138.28,189.91,137.69Z"/><path class="cls-1" d="M77.65,159.58c-14.19.68-25.86-.54-37.14-4.45-21.53-7.44-34.4-22.41-39-44.4a58.84,58.84,0,0,1,0-26.63C3.89,74.38,9,66.13,15.93,59A95.7,95.7,0,0,1,44.38,39.31,170.74,170.74,0,0,1,79.22,27.84a196.38,196.38,0,0,1,45.15-5c6,.05,11.91.87,17.87,1.38,2.09.17,4.17.42,6.26.61a2.83,2.83,0,0,1,2.69,2.35c.15.62.27,1.25.37,1.88q2.37,15.89,4.73,31.78c.09.63.14,1.27.17,1.91.06,1-.5,1.56-1.42,1.24-1.37-.47-2.7-1-4.06-1.55-12.16-4.68-24.68-7.55-37.81-6.92-9.38.45-18.65,1.66-27.58,4.74A63.35,63.35,0,0,0,73.8,65.75c-13.36,8-17,22.41-11.86,35.42,4.63,11.62,13.55,18.32,26,20.54,7.11,1.28,14.18.7,21.24-.14a102.51,102.51,0,0,0,24.43-5.77,79.77,79.77,0,0,0,20.84-12c2.95-2.31,5.35-5.44,9.17-6.58,1.13,3.5,1.33,7.15,1.9,10.75,1.14,7.26,2.21,14.54,3.47,21.78a6,6,0,0,1-3,6.86,104.41,104.41,0,0,1-23.66,10.84,240.23,240.23,0,0,1-50,10.84C86.62,158.82,81,159.28,77.65,159.58Z"/><path class="cls-1" d="M481.3,0c6.92-.45,77.31,3,81.76,4-.18.91-1,1.16-1.65,1.61-3.12,2.25-3.94,5.34-3.27,8.91a41.65,41.65,0,0,0,1.38,5.09q6.81,21,13.67,41.95c2.43,7.44,4.92,14.87,7.36,22.23,1.51.27,1.66-.88,2.07-1.63q6.84-12.67,13.65-25.39Q604.66,41,613,25.34a31.44,31.44,0,0,0,2.79-7.13c.86-3.38.42-6.34-2.33-8.73a1.64,1.64,0,0,1-.68-1.9l73.87,8.53c0,1.2-.87,1.37-1.57,1.65-1,.43-2.12.75-3.17,1.17a29.72,29.72,0,0,0-14.89,12.45c-7,11.47-14.18,22.89-21.27,34.33q-15.19,24.53-30.39,49.05a70.82,70.82,0,0,0-7.08,14.14c-.79,2.3-1.07,2.38-3.58,2.16-8.85-.77-17.69-1.64-26.54-2.35-10.31-.84-20.62-1.55-30.92-2.32-1.61-.12-3.23-.2-4.82-.42a1.92,1.92,0,0,1-1.79-1.93c-.26-5.36-2.07-10.32-4.09-15.21C524.47,79.55,512.26,50.32,500.33,21,496.79,12.28,491.44,5.5,483,1.25A14.22,14.22,0,0,1,481.3,0Z"/><path class="cls-1" d="M385,.28c.68-.42.93-.7,1.18-.7q34.41,0,68.83,0c.24,0,.48.29.74.46-.05,1.08-1,1.48-1.68,2.08a17.68,17.68,0,0,0-5.82,13.2c-.58,21.9-.56,43.8-.7,65.7,0,7.84-.14,15.67-.21,23.5a22.75,22.75,0,0,0,1.19,8.5,21.46,21.46,0,0,0,4.68,7.21c.51.53,1.37.91,1.19,1.89-3.94.55-61.36.6-66,0-.23-.83.55-1.06,1-1.43a17.51,17.51,0,0,0,5.89-14.13c-.25-9.91-.38-19.82-.54-29.73Q394.25,52,393.84,27c-.07-3.83-.34-7.66-.44-11.5-.16-6-2.41-10.85-7.4-14.37C385.74,1,385.51.74,385,.28Z"/><path class="cls-1" d="M698.8,222.47c-.9.33-1.77.75-2.67,1.07a.9.9,0,0,1-1.2-1,18,18,0,0,1,2.89-6.53,7.22,7.22,0,0,0,1.66-3.11,17.21,17.21,0,0,0-6.78,3.19,11.61,11.61,0,0,1-3.19,2.1l-.24.23.24-.23-1.11-.87c.08-3.37,1.59-6.44,2.29-9.89a12.5,12.5,0,0,0-1.47.78,28,28,0,0,0-7.26,8.21c-.34.54-.73,1.15-1.41,1.15s-.94-.71-1.14-1.32c-1.3-3.94-2.59-7.88-3.91-11.81a7.69,7.69,0,0,0-1.63-3.43c-2.56,5.42-2.52,11.53-5.37,17.52A48.92,48.92,0,0,0,657.14,206c.73,4.48,3.43,7.87,3,12.24-3.87-1.5-6.79-4.65-11-4.65-.28,1,.49,1.49,1,2.05a37.57,37.57,0,0,1,5,7.58c.2.36.5.89-.07,1.23a1.35,1.35,0,0,1-.87.11,7.93,7.93,0,0,1-1.36-.49,20,20,0,0,0-7.78-2,11.3,11.3,0,0,0,3.65,3.67,36.28,36.28,0,0,1,8.59,9c1.77,2.75,4.43,4.62,6.92,6.65a5.06,5.06,0,0,0,5.85.8,9.72,9.72,0,0,1,9.7.22,5,5,0,0,0,6.24-.93,62.71,62.71,0,0,0,4.66-4.85c1.47-1.7,2.76-3.55,4.16-5.3s2.77-3.55,4.3-5.18,3.23-3,5.07-4.74A12.87,12.87,0,0,0,698.8,222.47Z"/><path class="cls-1" d="M209.15,222.45c-.9.33-1.77.75-2.67,1.07a.9.9,0,0,1-1.2-1,18.08,18.08,0,0,1,2.89-6.53,7.2,7.2,0,0,0,1.66-3.12,17.49,17.49,0,0,0-6.78,3.19,11.64,11.64,0,0,1-3.19,2.11l-.24.23.24-.23-1.11-.87c.08-3.38,1.59-6.44,2.29-9.89a14.43,14.43,0,0,0-1.47.77,28.13,28.13,0,0,0-7.26,8.22c-.34.54-.73,1.15-1.41,1.15s-.94-.71-1.14-1.32c-1.3-3.94-2.59-7.88-3.91-11.82a7.79,7.79,0,0,0-1.62-3.42c-2.57,5.42-2.53,11.53-5.38,17.52A48.92,48.92,0,0,0,167.49,206c.73,4.48,3.43,7.87,2.95,12.24-3.87-1.5-6.79-4.65-11-4.66-.27,1.05.49,1.5,1,2.06a38,38,0,0,1,5.05,7.58c.19.36.49.89-.08,1.22a1.29,1.29,0,0,1-.87.12,8.87,8.87,0,0,1-1.36-.49,20,20,0,0,0-7.78-2,11.3,11.3,0,0,0,3.65,3.67,36.28,36.28,0,0,1,8.59,9c1.77,2.75,4.43,4.62,6.92,6.64a5,5,0,0,0,5.85.81,9.72,9.72,0,0,1,9.7.22,5,5,0,0,0,6.24-.93,62.71,62.71,0,0,0,4.66-4.85c1.47-1.7,2.76-3.55,4.16-5.3s2.77-3.55,4.3-5.18,3.23-3,5.07-4.74A12.87,12.87,0,0,0,209.15,222.45Z"/></svg>